<svg xmlns="http://www.w3.org/2000/svg" width="500" height="500" viewBox="0 0 500 500">
<g>
<path d="M 200.79 260.58 L 200.50 270.50 L 192.50 270.65 C188.10,270.73 182.48,270.44 180.00,270.00 C159.17,266.29 143.20,249.89 141.39,230.33 C141.03,226.38 141.07,222.33 141.50,221.33 C141.92,220.32 142.41,218.41 142.58,217.07 C142.76,215.73 144.28,211.83 145.97,208.40 C151.48,197.21 164.43,187.84 178.25,185.03 C183.09,184.04 184.01,183.51 184.08,181.68 C184.12,180.48 184.32,178.60 184.52,177.50 C184.72,176.40 185.17,173.93 185.53,172.00 C185.88,170.07 188.00,164.98 190.24,160.67 C200.17,141.56 219.10,130.00 240.50,130.00 C258.18,130.00 273.95,137.61 284.97,151.46 C289.87,157.62 290.13,157.79 293.87,157.29 C299.14,156.58 307.97,159.33 313.16,163.29 C318.99,167.74 324.00,177.53 323.85,184.17 C323.68,191.54 321.54,190.23 320.04,181.84 C318.85,175.17 318.38,174.29 313.13,168.93 C306.64,162.30 301.83,160.48 292.90,161.28 C287.47,161.77 287.25,161.69 285.45,158.64 C279.89,149.21 267.21,139.38 256.22,135.99 C243.46,132.05 225.53,133.99 214.39,140.51 C199.30,149.35 188.00,167.28 188.00,182.38 L 188.00 187.55 L 180.55 188.73 C166.45,190.98 154.64,199.45 148.36,211.85 C145.81,216.89 145.50,218.53 145.50,227.02 C145.50,235.74 145.77,237.10 148.74,243.13 C156.03,257.92 172.13,267.00 191.10,267.00 L 196.92 267.00 L 197.21 257.76 L 197.50 248.53 L 205.50 242.78 C209.90,239.62 214.18,237.03 215.00,237.02 C215.82,237.01 219.15,238.80 222.38,241.00 C225.62,243.20 228.69,245.00 229.20,245.00 C229.75,245.00 230.04,236.78 229.92,224.98 C229.85,218.50 229.90,212.60 230.04,208.76 C230.14,209.05 230.54,208.78 231.33,208.13 C232.88,206.85 233.00,208.42 233.00,229.89 L 233.00 253.02 L 215.08 240.70 L 209.79 244.39 C206.88,246.41 203.73,248.66 202.79,249.37 C201.41,250.41 201.02,252.62 200.79,260.58 ZM 320.00 269.96 C312.71,271.11 296.69,271.36 295.67,270.33 C295.30,269.97 295.00,260.08 295.00,248.36 L 295.00 227.06 L 268.50 226.50 L 268.21 216.75 C267.95,207.81 267.76,207.00 265.96,207.00 C264.24,207.00 264.14,206.74 265.22,205.01 C266.46,203.04 266.47,203.04 267.24,205.11 C267.66,206.25 268.89,207.42 269.96,207.70 C271.63,208.14 271.96,209.24 272.21,215.36 L 272.50 222.50 L 299.00 223.06 L 299.00 267.00 L 307.25 266.98 C328.65,266.94 343.09,259.25 351.35,243.50 C354.27,237.94 354.50,236.77 354.50,227.50 C354.50,218.82 354.16,216.77 351.90,211.95 C350.47,208.90 347.77,204.66 345.90,202.53 C341.98,198.05 332.17,191.42 328.17,190.54 C326.31,190.13 325.43,189.30 325.43,187.97 C325.43,185.36 326.37,185.47 333.78,188.97 C340.95,192.36 349.78,200.24 353.47,206.53 C360.45,218.45 360.61,234.01 353.89,247.20 C348.50,257.79 333.58,267.80 320.00,269.96 ZM 409.08 307.08 C406.40,309.76 405.57,310.00 399.08,310.00 L 392.00 310.00 L 392.00 282.00 L 399.08 282.00 C405.57,282.00 406.40,282.24 409.08,284.92 C411.83,287.68 412.00,288.32 412.00,296.00 C412.00,303.68 411.83,304.32 409.08,307.08 ZM 361.88 309.89 L 361.58 310.00 C359.88,310.59 359.02,310.89 358.17,310.86 C357.25,310.83 356.33,310.41 354.38,309.56 C349.23,307.32 348.00,304.59 348.00,295.37 C348.00,287.45 348.10,287.09 351.08,284.59 C353.33,282.69 355.27,282.01 358.33,282.03 C365.63,282.09 368.00,285.51 368.00,295.98 C368.00,304.50 366.30,308.35 361.88,309.89 ZM 163.00 304.94 L 163.00 310.00 L 155.00 310.00 L 155.00 282.00 L 162.55 282.00 C169.22,282.00 170.37,282.28 172.55,284.45 C175.61,287.51 175.80,292.71 173.00,296.28 L 170.99 298.82 L 173.00 303.49 C174.10,306.06 175.00,308.58 175.00,309.08 C175.00,309.59 173.26,310.00 171.13,310.00 C167.39,310.00 167.22,309.84 165.99,305.47 C164.23,299.17 163.00,298.96 163.00,304.94 ZM 207.00 304.50 L 207.00 310.00 L 199.00 310.00 L 199.00 282.00 L 206.90 282.00 L 207.20 287.24 C207.43,291.29 207.90,292.56 209.25,292.81 C210.75,293.10 211.00,292.34 211.00,287.57 L 211.00 282.00 L 219.00 282.00 L 219.00 310.00 L 211.00 310.00 L 211.00 304.50 C211.00,299.67 210.76,299.00 209.00,299.00 C207.24,299.00 207.00,299.67 207.00,304.50 ZM 387.08 307.42 C383.49,311.23 376.92,311.07 372.92,307.08 C370.04,304.20 370.00,303.99 370.00,293.08 L 370.00 282.00 L 377.93 282.00 L 378.22 292.75 C378.45,301.51 378.78,303.50 380.00,303.50 C381.22,303.50 381.55,301.51 381.78,292.75 L 382.07 282.00 L 390.17 282.00 L 389.84 293.42 C389.53,303.89 389.30,305.06 387.08,307.42 ZM 138.29 308.00 C137.88,309.57 136.93,310.00 133.88,310.00 C131.75,310.00 130.00,309.73 130.00,309.39 C130.00,309.05 131.57,302.97 133.50,295.86 C135.43,288.76 137.00,282.71 137.00,282.42 C137.00,282.13 139.09,282.03 141.65,282.20 L 146.30 282.50 L 149.62 295.00 C151.44,301.88 152.95,308.06 152.97,308.75 C152.99,309.52 151.63,310.00 149.41,310.00 C146.65,310.00 145.69,309.53 145.29,308.00 C144.91,306.57 143.93,306.00 141.79,306.00 C139.65,306.00 138.67,306.57 138.29,308.00 ZM 273.00 307.05 L 273.00 310.00 L 264.00 310.00 C257.53,310.00 254.97,309.65 254.88,308.75 C254.69,306.76 254.69,304.18 254.85,292.75 L 255.00 282.00 L 273.13 282.00 L 272.81 285.25 C272.51,288.42 272.38,288.51 267.19,288.80 C262.82,289.05 261.93,289.41 262.20,290.80 C262.40,291.90 263.67,292.61 265.76,292.81 C268.61,293.09 269.00,293.48 269.00,296.06 C269.00,298.76 268.71,299.00 265.43,299.00 C262.30,299.00 261.90,299.28 262.18,301.25 C262.46,303.21 263.18,303.54 267.75,303.80 C272.83,304.09 273.00,304.20 273.00,307.05 ZM 248.77 297.25 L 245.50 310.00 L 241.46 310.00 L 237.43 310.00 L 234.19 296.75 C232.41,289.46 230.97,283.16 230.98,282.75 C230.99,282.34 232.77,282.00 234.93,282.00 L 238.85 282.00 L 240.08 289.60 C241.38,297.68 242.29,297.68 243.46,289.62 C243.84,286.94 244.40,284.13 244.69,283.37 C245.36,281.62 251.99,281.51 252.02,283.25 C252.03,283.94 250.56,290.24 248.77,297.25 ZM 192.64 308.80 C187.27,311.36 182.29,310.46 179.06,306.35 C177.37,304.20 177.00,302.30 177.00,295.79 C177.00,288.34 177.18,287.66 179.92,284.92 C182.27,282.58 183.70,282.01 187.17,282.03 C191.83,282.07 194.00,283.23 195.84,286.68 C197.91,290.57 197.31,292.00 193.62,292.00 C191.26,292.00 189.81,291.34 188.80,289.83 C186.39,286.20 185.00,288.49 185.00,296.09 C185.00,301.60 185.34,303.19 186.62,303.69 C187.60,304.06 188.62,303.65 189.17,302.65 C190.17,300.87 197.00,300.26 197.00,301.95 C197.00,304.13 194.63,307.85 192.64,308.80 ZM 321.06 308.97 C316.94,311.17 310.14,309.80 307.25,306.18 C305.95,304.55 305.47,289.55 306.62,286.54 C307.52,284.21 312.32,282.00 316.50,282.00 C320.83,282.00 325.00,285.66 325.00,289.45 C325.00,291.59 324.54,292.00 322.12,292.00 C320.25,292.00 318.72,291.22 317.76,289.76 C316.48,287.83 316.05,287.71 314.64,288.89 C312.36,290.77 312.34,301.21 314.61,303.09 C315.97,304.22 316.41,304.16 317.47,302.71 C318.67,301.06 323.99,300.33 325.29,301.63 C326.25,302.58 323.23,307.81 321.06,308.97 ZM 289.00 304.69 L 289.00 310.00 L 281.00 310.00 L 281.00 304.62 C281.00,301.66 280.31,297.59 279.47,295.57 C278.62,293.55 277.05,289.67 275.98,286.95 L 274.03 282.00 L 277.97 282.00 C281.71,282.00 281.98,282.21 283.12,286.00 C284.60,290.95 285.71,291.08 286.58,286.42 C287.33,282.44 288.40,281.71 292.82,282.18 L 295.83 282.50 L 292.41 290.94 C290.02,296.87 289.00,300.97 289.00,304.69 ZM 346.00 307.05 L 346.00 310.00 L 328.00 310.00 L 328.00 282.00 L 334.93 282.00 L 335.22 292.75 L 335.50 303.50 L 340.75 303.80 C345.83,304.09 346.00,304.20 346.00,307.05 ZM 228.78 296.25 L 229.06 310.00 L 221.00 310.00 L 221.00 281.88 L 228.50 282.50 ZM 354.80 337.80 C354.14,338.46 352.09,339.00 350.23,339.00 L 346.87 339.00 L 347.18 330.25 L 347.50 321.50 L 350.31 321.18 C354.84,320.66 356.00,322.43 356.00,329.92 C356.00,333.78 355.49,337.11 354.80,337.80 ZM 389.00 337.97 C389.00,338.54 388.55,339.00 388.00,339.00 C386.76,339.00 386.81,337.32 388.33,328.50 C389.35,322.60 389.87,321.45 391.66,321.20 C393.60,320.92 393.88,321.61 395.00,329.50 C396.27,338.43 395.81,340.83 393.47,337.62 C392.09,335.74 389.00,335.98 389.00,337.97 ZM 334.96 337.07 C333.81,339.23 330.04,339.64 328.20,337.80 C326.37,335.97 326.65,324.49 328.57,322.57 C330.72,320.43 333.71,320.60 334.96,322.93 C336.41,325.64 336.26,327.00 334.50,327.00 C333.67,327.00 333.00,326.33 333.00,325.50 C333.00,324.67 332.30,324.00 331.45,324.00 C330.19,324.00 329.96,325.15 330.20,330.25 C330.38,333.99 330.90,336.30 331.50,336.00 C332.05,335.73 332.40,334.04 332.28,332.25 C332.10,329.61 332.43,329.00 334.03,329.00 C335.56,329.00 336.00,329.68 336.00,332.07 C336.00,333.75 335.53,336.00 334.96,337.07 ZM 376.00 338.07 C376.00,338.58 374.20,339.00 372.00,339.00 L 368.00 339.00 L 368.00 321.42 L 372.00 321.27 C374.90,321.15 376.00,321.50 376.00,322.55 C376.00,323.43 375.01,324.00 373.50,324.00 C371.50,324.00 371.00,324.50 371.00,326.50 C371.00,328.33 371.53,329.00 373.00,329.00 C375.62,329.00 375.58,331.03 372.95,331.72 C370.10,332.47 370.72,336.39 373.75,336.82 C374.99,337.00 376.00,337.56 376.00,338.07 ZM 314.80 337.80 C313.51,339.09 309.75,339.42 308.67,338.33 C307.81,337.48 307.79,334.00 308.64,334.00 C308.99,334.00 309.86,334.79 310.57,335.75 C311.79,337.41 311.89,337.41 312.56,335.69 C313.04,334.45 312.44,333.02 310.63,331.14 C307.13,327.48 307.12,323.36 310.61,321.77 C312.85,320.75 313.42,320.85 314.61,322.48 C315.37,323.53 316.00,324.75 316.00,325.19 C316.00,326.49 313.21,326.12 312.71,324.75 C312.38,323.86 311.92,323.81 311.12,324.56 C310.28,325.34 310.77,326.66 312.96,329.56 C316.20,333.83 316.67,335.93 314.80,337.80 ZM 356.67 303.33 C358.85,305.52 361.00,301.77 361.00,295.76 C361.00,291.04 359.02,287.25 357.15,288.41 C355.92,289.17 355.50,302.17 356.67,303.33 ZM 400.69 303.35 C402.48,305.15 403.53,302.72 403.79,296.17 C404.07,289.52 403.94,289.00 402.04,289.00 C400.18,289.00 400.00,289.62 400.00,295.83 C400.00,299.59 400.31,302.98 400.69,303.35 ZM 218.37 254.00 C218.48,256.12 218.01,256.55 215.28,256.81 C212.57,257.07 211.97,256.73 211.44,254.62 C211.09,253.24 211.11,251.64 211.46,251.06 C212.20,249.86 217.94,249.60 218.12,250.75 C218.18,251.16 218.30,252.62 218.37,254.00 ZM 350.64 336.31 C352.14,337.81 353.00,335.49 353.00,329.94 C353.00,325.33 352.67,324.00 351.50,324.00 C350.34,324.00 350.00,325.31 350.00,329.83 C350.00,333.04 350.29,335.95 350.64,336.31 ZM 260.82 216.75 C260.60,218.62 259.85,219.59 258.46,219.79 C255.88,220.16 255.00,219.28 255.00,216.33 C255.00,214.40 255.52,214.00 258.07,214.00 C260.82,214.00 261.10,214.28 260.82,216.75 ZM 246.82 216.75 C246.51,219.45 243.38,221.05 241.71,219.38 C241.32,218.99 241.00,217.62 241.00,216.33 C241.00,214.40 241.52,214.00 244.07,214.00 C246.82,214.00 247.10,214.28 246.82,216.75 ZM 291.00 251.50 C291.00,253.61 290.53,254.00 288.00,254.00 C285.47,254.00 285.00,253.61 285.00,251.50 C285.00,249.39 285.47,249.00 288.00,249.00 C290.53,249.00 291.00,249.39 291.00,251.50 ZM 246.82 247.14 C246.51,249.23 242.79,251.46 241.60,250.26 C241.27,249.94 241.00,248.62 241.00,247.33 C241.00,245.40 241.52,245.00 244.07,245.00 C246.64,245.00 247.09,245.35 246.82,247.14 ZM 291.00 242.50 C291.00,244.45 290.49,245.00 288.67,245.00 C285.85,245.00 285.00,244.26 285.00,241.83 C285.00,240.46 285.76,240.00 288.00,240.00 C290.53,240.00 291.00,240.39 291.00,242.50 ZM 246.77 237.50 C246.60,239.52 246.03,240.00 243.78,240.00 C241.48,240.00 241.00,239.57 241.00,237.50 C241.00,235.39 241.47,235.00 243.99,235.00 C246.57,235.00 246.95,235.34 246.77,237.50 ZM 261.00 237.50 C261.00,239.57 260.52,240.00 258.22,240.00 C255.97,240.00 255.40,239.52 255.23,237.50 C255.05,235.34 255.43,235.00 258.01,235.00 C260.53,235.00 261.00,235.39 261.00,237.50 ZM 260.82 247.67 C260.32,252.03 255.39,251.87 255.47,247.50 C255.49,246.06 256.29,245.41 258.32,245.18 C260.89,244.88 261.12,245.11 260.82,247.67 ZM 291.00 232.43 C291.00,234.63 290.56,235.00 287.93,235.00 C285.32,235.00 284.91,234.66 285.18,232.75 C285.41,231.14 286.28,230.41 288.25,230.18 C290.62,229.91 291.00,230.22 291.00,232.43 ZM 260.82 227.25 C260.63,228.62 259.70,229.61 258.46,229.79 C256.00,230.14 255.00,229.29 255.00,226.83 C255.00,225.45 255.76,225.00 258.07,225.00 C260.68,225.00 261.09,225.34 260.82,227.25 ZM 246.82 227.25 C246.63,228.62 245.70,229.61 244.46,229.79 C242.00,230.14 241.00,229.29 241.00,226.83 C241.00,225.45 241.76,225.00 244.07,225.00 C246.68,225.00 247.09,225.34 246.82,227.25 ZM 163.69 293.35 C164.88,294.55 166.49,293.43 166.82,291.17 C167.06,289.54 166.63,289.00 165.07,289.00 C163.04,289.00 162.15,291.81 163.69,293.35 ZM 140.48 299.98 C142.51,303.25 143.78,298.84 142.07,294.50 C141.38,292.75 141.19,292.90 140.57,295.73 C140.17,297.50 140.14,299.41 140.48,299.98 ZM 390.61 333.18 C391.68,334.92 392.96,332.57 392.30,330.06 L 391.67 327.65 L 390.84 329.92 C390.37,331.16 390.27,332.63 390.61,333.18 ZM 230.06 208.07 C230.16,205.79 230.28,204.38 230.43,204.23 C230.83,203.83 230.83,204.85 230.42,206.50 C230.25,207.18 230.13,207.69 230.06,208.07 Z" fill="rgb(57,101,135)"/>
<path d="M 230.06 208.07 C230.13,207.69 230.25,207.18 230.42,206.50 C230.67,205.48 230.77,204.71 230.71,204.35 C230.83,204.14 230.96,204.00 231.10,203.90 C231.87,203.41 241.27,203.12 252.00,203.25 L 271.50 203.50 L 271.88 210.69 C271.58,208.57 271.07,207.99 269.96,207.70 C268.89,207.42 267.66,206.25 267.24,205.11 C266.47,203.04 266.46,203.04 265.22,205.01 C264.14,206.74 264.24,207.00 265.96,207.00 L 233.00 207.00 L 233.00 229.89 C233.00,208.42 232.88,206.85 231.33,208.13 C230.54,208.78 230.14,209.05 230.04,208.76 C229.90,212.58 229.85,218.45 229.91,224.90 C229.82,215.84 229.85,210.59 230.08,207.59 C230.08,207.74 230.07,207.90 230.06,208.07 ZM 321.47 174.42 C322.99,177.43 324.00,180.33 324.00,182.25 C324.00,184.04 324.64,185.28 325.75,185.65 C326.53,185.91 327.31,186.19 328.09,186.49 C325.82,185.73 325.43,186.28 325.43,187.97 C325.43,189.02 325.98,189.76 327.12,190.22 C326.78,190.11 326.44,190.02 326.11,189.93 L 321.26 188.69 L 320.05 181.87 C321.55,190.24 323.68,191.54 323.85,184.17 C323.91,181.28 323.00,177.80 321.47,174.42 ZM 345.51 257.52 C340.81,262.02 335.20,265.38 328.70,267.60 C334.83,265.29 340.75,261.71 345.51,257.52 ZM 165.00 260.30 C157.94,256.20 152.29,250.34 148.74,243.13 C152.09,249.93 158.01,256.03 165.00,260.30 ZM 327.79 190.45 C327.91,190.48 328.04,190.51 328.17,190.54 C330.27,191.00 333.97,193.05 337.58,195.54 C334.30,193.35 330.78,191.49 327.79,190.45 ZM 183.43 266.49 C185.64,266.70 188.13,266.86 190.21,266.89 L 196.92 267.00 L 191.10 267.00 C188.48,267.00 185.92,266.83 183.43,266.49 ZM 358.70 223.65 C359.13,228.61 358.71,233.60 357.39,238.07 C357.32,238.31 357.25,238.54 357.18,238.77 C358.57,233.78 359.07,228.65 358.70,223.65 ZM 344.66 196.43 C348.35,199.58 351.42,203.05 353.47,206.53 C351.58,203.31 348.34,199.67 344.66,196.43 ZM 296.06 270.52 L 295.50 270.50 L 295.49 269.35 C295.54,269.93 295.60,270.27 295.67,270.33 C295.73,270.40 295.87,270.46 296.06,270.52 ZM 295.00 230.19 L 294.96 227.06 L 281.73 226.78 L 295.00 227.06 ZM 229.92 224.98 C230.04,236.32 229.77,244.35 229.26,244.96 C229.77,244.35 230.03,236.33 229.92,224.98 Z" fill="rgb(53,70,88)"/>
</g>
</svg>